<svg id="그룹_38" data-name="그룹 38" xmlns="http://www.w3.org/2000/svg" width="32" height="32.052" viewBox="0 0 32 32.052">
  <g id="사각형_148" data-name="사각형 148" transform="translate(2)" fill="none" stroke-width="4">
    <path d="M14,0h0A14,14,0,0,1,28,14V32a0,0,0,0,1,0,0H0a0,0,0,0,1,0,0V14A14,14,0,0,1,14,0Z" stroke="none"/>
    <path d="M14,2h0A12,12,0,0,1,26,14V30a0,0,0,0,1,0,0H2a0,0,0,0,1,0,0V14A12,12,0,0,1,14,2Z" fill="none"/>
  </g>
  <path id="패스_64" data-name="패스 64" d="M-395.695,373.052h32" transform="translate(395.695 -343)" fill="none" stroke-width="4"/>
</svg>
